<svg width="24" height="24" viewBox="0 0 24 24" fill="none" xmlns="http://www.w3.org/2000/svg">
<path d="M19 24H5C2.13043 24 0 21.8696 0 19V5C0 2.13043 2.13043 0 5 0H19C21.8696 0 24 2.13043 24 5V19C24 21.8696 21.8696 24 19 24Z" fill="url(#paint0_radial_3143_73)"/>
<path d="M11.9999 5.00003C14.4352 5.00003 15.047 4.94709 15.9999 5.00003C16.8999 5.05297 16.6823 4.89415 16.9999 5.00003C17.4234 5.15885 17.6823 5.68238 17.9999 6.00003C18.3176 6.31768 18.8411 6.5765 18.9999 7.00003C19.1058 7.31768 18.947 7.10003 18.9999 8.00003C18.9999 8.90003 18.9999 9.56474 18.9999 12C18.9999 14.4353 19.0528 15.0471 18.9999 16C18.947 16.9 19.1058 16.6824 18.9999 17C18.8411 17.4236 18.3176 17.6824 17.9999 18C17.6823 18.3177 17.4234 18.8412 16.9999 19C16.6823 19.1059 16.8999 18.9471 15.9999 19C15.0999 19 14.4352 19 11.9999 19C9.56461 19 8.95285 19.053 7.99991 19C7.09991 18.9471 7.31756 19.1059 6.99991 19C6.57638 18.8412 6.31756 18.3177 5.99991 18C5.68226 17.6824 5.15873 17.4236 4.99991 17C4.89403 16.6824 5.05285 16.9 4.99991 16C4.99991 15.1 4.99991 14.4353 4.99991 12C4.99991 9.56474 4.94697 8.95297 4.99991 8.00003C5.05285 7.10003 4.89403 7.31768 4.99991 7.00003C5.15873 6.5765 5.68226 6.31768 5.99991 6.00003C6.31756 5.68238 6.57638 5.15885 6.99991 5.00003C7.31756 4.89415 7.09991 5.05297 7.99991 5.00003C8.89991 5.00003 9.56461 5.00003 11.9999 5.00003ZM11.9999 3.00003C9.56461 3.00003 8.95285 2.94709 7.99991 3.00003C7.04697 3.05297 6.58226 2.78827 5.99991 3.00003C5.41756 3.21179 5.47638 4.47062 4.99991 5.00003C4.52344 5.52944 3.26461 5.41768 2.99991 6.00003C2.78814 6.58238 3.05285 7.04709 2.99991 8.00003C2.94697 8.95297 2.99991 9.56474 2.99991 12C2.99991 14.4353 2.94697 15.0471 2.99991 16C3.05285 16.953 2.78814 17.4177 2.99991 18C3.21167 18.5824 4.4705 18.5236 4.99991 19C5.47638 19.4765 5.41756 20.7353 5.99991 21C6.58226 21.2118 7.04697 20.9471 7.99991 21C8.95285 21.053 9.56461 21 11.9999 21C14.4352 21 15.047 21.053 15.9999 21C16.9528 20.9471 17.4176 21.2118 17.9999 21C18.5823 20.7883 18.5234 19.5294 18.9999 19C19.4764 18.5236 20.7352 18.5824 20.9999 18C21.2117 17.4177 20.947 16.953 20.9999 16C21.0528 15.0471 20.9999 14.4353 20.9999 12C20.9999 9.56474 21.0528 8.95297 20.9999 8.00003C20.947 7.04709 21.2117 6.58238 20.9999 6.00003C20.7881 5.41768 19.5293 5.4765 18.9999 5.00003C18.4705 4.52356 18.5823 3.26474 17.9999 3.00003C17.4176 2.78827 16.9528 3.05297 15.9999 3.00003C15.047 2.94709 14.4352 3.00003 11.9999 3.00003Z" fill="white"/>
<path d="M12 7C9.5 7 7 9.5 7 12C7 14.5 9.5 16 12 16C14.5 16 16 14.5 16 12C16 9.5 14.5 7 12 7ZM12 15C10.35 15 9 13.65 9 12C9 10.35 10.35 9 12 9C13.65 9 15 10.35 15 12C15 13.65 13.65 15 12 15Z" fill="white"/>
<path d="M17 8C17.5523 8 18 7.55228 18 7C18 6.44772 17.5523 6 17 6C16.4477 6 16 6.44772 16 7C16 7.55228 16.4477 8 17 8Z" fill="white"/>
<defs>
<radialGradient id="paint0_radial_3143_73" cx="0" cy="0" r="1" gradientUnits="userSpaceOnUse" gradientTransform="translate(4.96118 28.8499) rotate(-49.945) scale(36.3368 24.0035)">
<stop offset="0.073" stop-color="#EACC7B"/>
<stop offset="0.184" stop-color="#ECAA59"/>
<stop offset="0.307" stop-color="#EF802E"/>
<stop offset="0.358" stop-color="#EF6D3A"/>
<stop offset="0.46" stop-color="#F04B50"/>
<stop offset="0.516" stop-color="#F03E58"/>
<stop offset="0.689" stop-color="#DB359E"/>
<stop offset="0.724" stop-color="#CE37A4"/>
<stop offset="0.789" stop-color="#AC3CB4"/>
<stop offset="0.877" stop-color="#7544CF"/>
<stop offset="0.98" stop-color="#2B4FF2"/>
</radialGradient>
</defs>
</svg>
