<svg width="160" height="33" viewBox="0 0 160 33" fill="none" xmlns="http://www.w3.org/2000/svg">
<path d="M57.7036 32.3355C57.5392 32.3355 57.3854 32.2547 57.292 32.1193L51.6075 23.8759C51.5068 23.7299 51.3363 23.6484 51.1594 23.6602C50.5526 23.7008 50.0654 23.7212 49.6978 23.7212H43.3281C43.052 23.7212 42.8281 23.945 42.8281 24.2212V31.8355C42.8281 32.1116 42.6042 32.3355 42.3281 32.3355H39.3572C39.081 32.3355 38.8572 32.1116 38.8572 31.8355V4.5255C38.8572 4.24936 39.081 4.0255 39.3572 4.0255H49.6978C53.2981 4.0255 56.1307 4.90176 58.1956 6.65429C60.2604 8.40681 61.2929 10.8199 61.2929 13.8935C61.2929 16.0775 60.7634 17.9378 59.7045 19.4747C58.7578 20.8486 57.4515 21.8885 55.7854 22.5944C55.4825 22.7227 55.3619 23.0971 55.5494 23.3674L61.225 31.5505C61.4549 31.8821 61.2176 32.3355 60.8141 32.3355H57.7036ZM49.5787 20.2835C52.0936 20.2835 54.0129 19.7308 55.3365 18.6254C56.6601 17.5199 57.322 15.9427 57.322 13.8935C57.322 11.8444 56.6601 10.2807 55.3365 9.20218C54.0129 8.09675 52.0936 7.54403 49.5787 7.54403H43.3281C43.052 7.54403 42.8281 7.76789 42.8281 8.04403V19.7835C42.8281 20.0597 43.052 20.2835 43.3281 20.2835H49.5787Z" fill="black"/>
<path d="M103.377 11.0772C103.377 10.8011 103.601 10.5772 103.877 10.5772H109.072C109.348 10.5772 109.572 10.8011 109.572 11.0772V31.8355C109.572 32.1116 109.348 32.3355 109.072 32.3355H106.475H103.377V27.0122V11.0772Z" fill="black"/>
<path d="M125.204 10.2537C127.851 10.2537 129.982 11.0626 131.597 12.6803C133.238 14.298 134.059 16.6976 134.059 19.8791V31.8355C134.059 32.1116 133.835 32.3355 133.559 32.3355H128.364C128.088 32.3355 127.864 32.1116 127.864 31.8355V20.8497C127.864 19.1242 127.493 17.8435 126.752 17.0076C126.011 16.1449 124.939 15.7135 123.536 15.7135C121.974 15.7135 120.73 16.2123 119.803 17.2099C118.877 18.1805 118.413 19.6364 118.413 21.5777V31.8355C118.413 32.1116 118.189 32.3355 117.913 32.3355H112.719C112.443 32.3355 112.219 32.1116 112.219 31.8355V11.0772C112.219 10.8011 112.443 10.5772 112.719 10.5772H117.635C117.912 10.5772 118.135 10.8011 118.135 11.0772V11.817C118.135 12.2759 118.727 12.5143 119.086 12.229C119.706 11.7371 120.408 11.3348 121.193 11.0221C122.411 10.5098 123.748 10.2537 125.204 10.2537Z" fill="black"/>
<path d="M146.094 24.2437C145.908 24.0087 145.559 23.9888 145.347 24.2012L142.912 26.6485C142.819 26.7422 142.766 26.869 142.766 27.0012V31.8355C142.766 32.1116 142.542 32.3355 142.266 32.3355H137.072C136.795 32.3355 136.572 32.1116 136.572 31.8355V2.82691C136.572 2.55076 136.795 2.3269 137.072 2.3269H142.266C142.542 2.3269 142.766 2.55076 142.766 2.8269V18.1357C142.766 18.5768 143.296 18.8018 143.613 18.4955L151.675 10.7174C151.768 10.6275 151.892 10.5772 152.022 10.5772H158.029C158.47 10.5772 158.695 11.1069 158.389 11.4244L150.611 19.4872C150.439 19.6658 150.423 19.9437 150.575 20.1401L159.377 31.5297C159.631 31.8584 159.397 32.3355 158.982 32.3355H152.737C152.584 32.3355 152.44 32.2656 152.345 32.1457L146.094 24.2437Z" fill="black"/>
<path d="M88.8471 30.3538C90.2502 31.6749 92.2224 32.3355 94.7638 32.3355H103.377V27.0122H95.7304C94.8832 27.0122 94.2214 26.7695 93.7449 26.2842C93.2949 25.7719 93.0699 25.0575 93.0699 24.1407V15.7838C93.0699 15.5076 93.2937 15.2838 93.5699 15.2838H97.8909C98.167 15.2838 98.3909 15.0599 98.3909 14.7838V10.9306C98.3909 10.6545 98.167 10.4306 97.8909 10.4306H93.5699C93.2937 10.4306 93.0699 10.2068 93.0699 9.93063V5.63263C93.0699 5.35648 92.846 5.13263 92.5699 5.13263H87.3752C87.0991 5.13263 86.8752 5.35648 86.8752 5.63263V9.93063C86.8752 10.2068 86.6514 10.4306 86.3752 10.4306H84.0794C83.8032 10.4306 83.5794 10.6545 83.5794 10.9306V14.7838C83.5794 15.0599 83.8032 15.2838 84.0794 15.2838H86.3702C86.6483 15.2838 86.8729 15.5107 86.8701 15.7888L86.7823 24.53C86.7823 27.0914 87.4706 29.0326 88.8471 30.3538Z" fill="black"/>
<path fill-rule="evenodd" clip-rule="evenodd" d="M82.7731 21.7395C82.7731 21.9389 82.7611 22.1811 82.7371 22.4659C82.7158 22.7202 82.5004 22.9123 82.2452 22.9123H66.1858C65.8848 22.9123 65.6507 23.1769 65.7082 23.4723C66.0256 25.1032 66.8032 26.4399 68.041 27.4823C69.444 28.6147 71.178 29.1809 73.2429 29.1809H82.2731C82.5492 29.1809 82.7731 29.4048 82.7731 29.6809V32.0781C82.7731 32.3543 82.5492 32.5781 82.2731 32.5781H73.1237C70.9 32.5781 68.9278 32.1198 67.2071 31.2031C65.4863 30.2594 64.1495 28.9518 63.1964 27.2801C62.2699 25.6085 61.8066 23.7212 61.8066 21.6181C61.8066 19.5421 62.2567 17.6682 63.1567 15.9966C64.0833 14.3249 65.3407 13.0308 66.9291 12.1141C68.5439 11.1704 70.3573 10.6986 72.3693 10.6986C74.3812 10.6986 76.1681 11.1704 77.73 12.1141C79.3184 13.0308 80.5494 14.3249 81.423 15.9966C82.323 17.6682 82.7731 19.5825 82.7731 21.7395ZM67.763 15.673C69.0072 14.5406 70.5426 13.9744 72.3693 13.9744C74.1959 13.9744 75.7181 14.5541 76.9358 15.7135C78.0499 16.7274 78.7501 18.0115 79.0364 19.5659C79.0906 19.8601 78.857 20.1217 78.5578 20.1217H66.1798C65.8809 20.1217 65.6474 19.8607 65.7001 19.5665C65.983 17.9867 66.6706 16.6888 67.763 15.673Z" fill="black"/>
<path fill-rule="evenodd" clip-rule="evenodd" d="M18.6818 19.8337C20.4638 19.6497 22.9794 18.9896 25.0771 17.5823C27.2757 16.1072 28.988 13.8383 28.988 10.4019C28.988 6.85883 27.7704 4.7358 26.3294 3.4874C24.8617 2.21599 23.094 1.79321 21.9416 1.79321H2.47107C1.84134 1.79321 1.52784 2.57008 1.9757 3.0208L18.6818 19.8337Z" fill="#EA0022"/>
<path d="M25.0771 17.5823C22.9794 18.9896 20.4638 19.6497 18.6818 19.8337L1.9757 3.0208C1.52784 2.57008 1.84134 1.79321 2.47107 1.79321H21.9416C23.094 1.79321 24.8617 2.21599 26.3294 3.4874C27.7704 4.7358 28.988 6.85883 28.988 10.4019C28.988 13.8383 27.2757 16.1072 25.0771 17.5823Z" fill="#EA0022"/>
<path d="M25.078 18.2999C22.9803 19.7073 20.4647 20.3674 18.6827 20.5513L2.29248 3.33252L15.6797 14.1906C18.6827 16.6024 21.7119 16.3882 24.5666 15.0205C26.0715 14.2995 27.8125 12.9475 29.1404 9.31236C29.3057 10.5113 29.9192 14.9564 25.078 18.2999Z" fill="#9B0003"/>
<path fill-rule="evenodd" clip-rule="evenodd" d="M15.6017 31.2063L4.10752 20.0485C3.65901 19.6131 2.91663 19.9368 2.91663 20.5677V30.4889C2.91663 30.8851 3.2321 31.2063 3.62127 31.2063H15.6017Z" fill="#BDBDBD"/>
<path d="M4.10752 20.0485L15.6017 31.2063H3.62127C3.2321 31.2063 2.91663 30.8851 2.91663 30.4889V20.5677C2.91663 19.9368 3.65901 19.6131 4.10752 20.0485Z" fill="#BDBDBD"/>
<path opacity="0.58" d="M3.9482 27.8644L3.94825 25.9087C3.99009 27.5988 4.30747 28.74 5.18992 29.2383C6.7809 30.1021 6.17986 30.2101 4.42971 30.1021C3.9004 30.0695 3.96986 28.7394 3.9482 27.8644Z" fill="white"/>
<path d="M9.72514 25.5278C13.4111 30.4438 9.20297 31.6727 6.63818 31.6727H16.1755L9.72514 25.5278Z" fill="#797979"/>
<path opacity="0.58" d="M22.1089 2.63574H16.928C20.1008 2.63574 22.9384 3.23176 23.9156 4.92378C24.9006 7.15519 27.247 7.0234 26.2952 5.19297C25.3433 3.36254 23.7515 2.63574 22.1089 2.63574Z" fill="white"/>
<path fill-rule="evenodd" clip-rule="evenodd" d="M0.984968 4.04141C-0.358596 2.68926 0.581862 0.358643 2.47107 0.358643H21.9416C23.3729 0.358643 25.4807 0.868477 27.2427 2.39489C29.0312 3.94432 30.3973 6.48433 30.3973 10.4021C30.3973 14.4266 28.3515 17.1039 25.8525 18.7805C23.9402 20.0635 21.7472 20.7761 19.9416 21.1017L27.7485 28.9585C29.092 30.3106 28.1515 32.6413 26.2623 32.6413H3.62092C2.45343 32.6413 1.507 31.6777 1.507 30.4891V20.5679C1.507 18.6751 3.73416 17.7041 5.07969 19.0102L17.6435 31.2065H26.2623C26.8921 31.2065 27.2056 30.4296 26.7577 29.9789L0.984968 4.04141ZM25.0771 17.5825C22.9794 18.9899 20.4638 19.65 18.6818 19.8339L1.97571 3.02102C1.52785 2.57029 1.84134 1.79343 2.47107 1.79343H21.9416C23.094 1.79343 24.8617 2.2162 26.3294 3.48762C27.7704 4.73601 28.988 6.85904 28.988 10.4021C28.988 13.8385 27.2757 16.1074 25.0771 17.5825ZM15.6013 31.2065L4.10718 20.0486C3.65867 19.6133 2.91628 19.9369 2.91628 20.5679V30.4891C2.91628 30.8853 3.23176 31.2065 3.62092 31.2065H15.6013Z" fill="black"/>
<path fill-rule="evenodd" clip-rule="evenodd" d="M0.737406 4.29656C-0.830084 2.71905 0.267115 0 2.47119 0H21.9417C23.4428 0 25.6355 0.531599 27.4711 2.12176C29.3465 3.74645 30.7497 6.3907 30.7497 10.4022C30.7497 14.5737 28.6206 17.3531 26.0465 19.0801C24.3153 20.2416 22.3652 20.9449 20.6621 21.3224L27.9963 28.7034C29.5638 30.281 28.4665 33 26.2625 33H3.62104C2.25897 33 1.1548 31.8758 1.1548 30.4891V20.5679C1.1548 18.3597 3.75316 17.2268 5.32294 18.7507L17.7847 30.8478H26.2625C26.5773 30.8478 26.7341 30.4594 26.5102 30.234L0.737406 4.29656ZM14.7214 30.8478L3.86417 20.3083C3.63992 20.0906 3.26872 20.2524 3.26872 20.5679V30.4891C3.26872 30.6872 3.42646 30.8478 3.62104 30.8478H14.7214ZM18.8105 19.459C20.5375 19.2568 22.9068 18.6091 24.8833 17.283C27.0069 15.8583 28.6358 13.6915 28.6358 10.4022C28.6358 6.95277 27.4554 4.93399 26.1012 3.76085C24.7071 2.55318 23.0244 2.15217 21.9417 2.15217H2.47119C2.15633 2.15217 1.99958 2.54061 2.22351 2.76597L18.8105 19.459Z" fill="black"/>
</svg>
